<svg xmlns="http://www.w3.org/2000/svg" xmlns:xlink="http://www.w3.org/1999/xlink" xml:lang="en" height="247.84000000000003pt" width="382.802pt" viewBox="-82.50999999999999 -238.20000000000002 382.802 247.84000000000003"><polygon points="119.69999999999997,-45.0 132.29999999999998,-36.0 119.69999999999997,-27.0 " style="stroke:black;fill:none;stroke-width:2.0;stroke-dasharray:-;stroke-linecap:round;stroke-linejoin:round;" /><path d="M 0.0,-108.0 L 36.0,-108.0 L 72.0,-108.0" style="stroke:black;fill:none;stroke-width:2.0;stroke-dasharray:-;stroke-linecap:round;stroke-linejoin:round;" /><path d="M 72.0,-108.0 L 72.0,-144.0 L 63.0,-147.0 L 81.0,-153.0 L 63.0,-158.99999999999997 L 81.0,-165.0 L 63.0,-171.0 L 81.0,-176.99999999999997 L 72.0,-180.0 L 72.0,-216.0" style="stroke:black;fill:none;stroke-width:2.0;stroke-dasharray:-;stroke-linecap:round;stroke-linejoin:round;" /><path d="M 72.0,-108.0 L 108.0,-108.0 L 110.99999999999999,-117.0 L 117.0,-99.0 L 123.0,-117.0 L 129.0,-99.0 L 135.0,-117.0 L 141.0,-99.0 L 144.0,-108.0 L 180.0,-108.0" style="stroke:black;fill:none;stroke-width:2.0;stroke-dasharray:-;stroke-linecap:round;stroke-linejoin:round;" /><path d="M 180.0,-108.0 L 198.0,-108.0 L 216.0,-108.0" style="stroke:black;fill:none;stroke-width:2.0;stroke-dasharray:-;stroke-linecap:round;stroke-linejoin:round;" /><path d="M 72.0,-108.0 L 71.99999999999999,-72.0 L 71.99999999999999,-36.0" style="stroke:black;fill:none;stroke-width:2.0;stroke-dasharray:-;stroke-linecap:round;stroke-linejoin:round;" /><path d="M 71.99999999999999,-36.0 L 119.69999999999997,-36.0 M 132.29999999999998,-45.0 L 132.29999999999998,-27.0 M 132.29999999999998,-36.0 L 180.0,-36.0" style="stroke:black;fill:none;stroke-width:2.0;stroke-dasharray:-;stroke-linecap:round;stroke-linejoin:round;" /><path d="M 180.0,-36.0 L 198.0,-36.0 L 216.0,-36.0" style="stroke:black;fill:none;stroke-width:2.0;stroke-dasharray:-;stroke-linecap:round;stroke-linejoin:round;" /><path d="M 0.0,-108.0 L -6.613092715395707e-15,-72.0 L -1.3226185430791413e-14,-36.0" style="stroke:black;fill:none;stroke-width:2.0;stroke-dasharray:-;stroke-linecap:round;stroke-linejoin:round;" /><path d="M -1.3226185430791413e-14,-36.0 L -1.3226185430791413e-14,-21.599999999999998 L -9.000000000000014,-21.599999999999998 L 8.999999999999988,-21.599999999999998 M -6.300000000000012,-17.28 L 6.2999999999999865,-17.28 M -1.8000000000000134,-12.959999999999999 L 1.799999999999987,-12.959999999999999" style="stroke:black;fill:none;stroke-width:2.0;stroke-dasharray:-;stroke-linecap:round;stroke-linejoin:round;" /><path d="M 252.0,-36.0 L 252.0,-27.0 L 252.0,-18.0" style="stroke:black;fill:none;stroke-width:2.0;stroke-dasharray:-;stroke-linecap:round;stroke-linejoin:round;" /><path d="M 252.0,-18.0 L 252.0,-3.599999999999999 L 243.0,-3.599999999999999 L 261.0,-3.599999999999999 M 245.70000000000002,0.7200000000000006 L 258.3,0.7200000000000006 M 250.20000000000002,5.040000000000001 L 253.79999999999998,5.040000000000001" style="stroke:black;fill:none;stroke-width:2.0;stroke-dasharray:-;stroke-linecap:round;stroke-linejoin:round;" /><text x="-50.4" y="-132.60000000000002" dominant-baseline="central" fill="darkred" font-size="14" font-family="sans" text-anchor="middle"><tspan x="-50.4" dy="14">IC-7000</tspan><tspan x="-50.4" dy="14">CI-V TIP</tspan></text><text x="72.0" y="-233.6" dominant-baseline="ideographic" fill="black" font-size="14" font-family="sans" text-anchor="middle"><tspan x="72.0" dy="14">10kΩ</tspan></text><text x="68.39999999999999" y="-233.6" dominant-baseline="central" fill="red" font-size="14" font-family="sans" text-anchor="middle"><tspan x="68.39999999999999" dy="14">+3.3V</tspan></text><text x="126.0" y="-134.60000000000002" dominant-baseline="ideographic" fill="black" font-size="14" font-family="sans" text-anchor="middle"><tspan x="126.0" dy="14">4.7kΩ</tspan></text><text x="219.6" y="-125.60000000000001" dominant-baseline="central" fill="blue" font-size="14" font-family="sans" text-anchor="middle"><tspan x="219.6" dy="14">GPIO4 (RX)</tspan></text><text x="125.99999999999999" y="-62.6" dominant-baseline="ideographic" fill="black" font-size="14" font-family="sans" text-anchor="middle"><tspan x="125.99999999999999" dy="14">1N4148</tspan></text><text x="219.6" y="-53.6" dominant-baseline="central" fill="blue" font-size="14" font-family="sans" text-anchor="middle"><tspan x="219.6" dy="14">GPIO5 (TX)</tspan></text><text x="-50.4" y="-71.4" dominant-baseline="central" fill="darkred" font-size="14" font-family="sans" text-anchor="middle"><tspan x="-50.4" dy="14">CI-V</tspan><tspan x="-50.4" dy="14">SLEEVE</tspan></text><text x="273.59999999999997" y="-53.4" dominant-baseline="central" fill="blue" font-size="14" font-family="sans" text-anchor="middle"><tspan x="273.59999999999997" dy="14">ESP32</tspan><tspan x="273.59999999999997" dy="14">GND</tspan></text><circle cx="0.0" cy="-108.0" r="2.6999999999999997" style="stroke:black;fill:black;stroke-width:2.0;stroke-dasharray:-;" /><circle cx="72.0" cy="-108.0" r="2.6999999999999997" style="stroke:black;fill:black;stroke-width:2.0;stroke-dasharray:-;" /></svg>