<svg xmlns="http://www.w3.org/2000/svg" xmlns:xlink="http://www.w3.org/1999/xlink" xml:lang="en" height="443.84pt" width="443.936pt" viewBox="-110.79999999999998 -320.2 443.936 443.84"><polygon points="119.69999999999997,-117.0 132.29999999999998,-108.0 119.69999999999997,-99.0 " style="stroke:black;fill:none;stroke-width:2.0;stroke-dasharray:-;stroke-linecap:round;stroke-linejoin:round;" /><path d="M 0.0,-180.0 L 36.0,-180.0 L 72.0,-180.0" style="stroke:black;fill:none;stroke-width:2.0;stroke-dasharray:-;stroke-linecap:round;stroke-linejoin:round;" /><path d="M 72.0,-180.0 L 72.0,-216.0 L 63.0,-219.0 L 81.0,-225.0 L 63.0,-230.99999999999997 L 81.0,-237.0 L 63.0,-243.0 L 81.0,-248.99999999999997 L 72.0,-252.0 L 72.0,-288.0" style="stroke:black;fill:none;stroke-width:2.0;stroke-dasharray:-;stroke-linecap:round;stroke-linejoin:round;" /><path d="M 72.0,-180.0 L 108.0,-180.0 L 110.99999999999999,-189.0 L 117.0,-171.0 L 123.0,-189.0 L 129.0,-171.0 L 135.0,-189.0 L 141.0,-171.0 L 144.0,-180.0 L 180.0,-180.0" style="stroke:black;fill:none;stroke-width:2.0;stroke-dasharray:-;stroke-linecap:round;stroke-linejoin:round;" /><path d="M 180.0,-180.0 L 216.0,-180.0 L 252.0,-180.0" style="stroke:black;fill:none;stroke-width:2.0;stroke-dasharray:-;stroke-linecap:round;stroke-linejoin:round;" /><path d="M 72.0,-180.0 L 71.99999999999999,-144.0 L 71.99999999999999,-108.0" style="stroke:black;fill:none;stroke-width:2.0;stroke-dasharray:-;stroke-linecap:round;stroke-linejoin:round;" /><path d="M 71.99999999999999,-108.0 L 119.69999999999997,-108.0 M 132.29999999999998,-117.0 L 132.29999999999998,-99.0 M 132.29999999999998,-108.0 L 180.0,-108.0" style="stroke:black;fill:none;stroke-width:2.0;stroke-dasharray:-;stroke-linecap:round;stroke-linejoin:round;" /><path d="M 180.0,-108.0 L 216.0,-108.0 L 252.0,-108.0" style="stroke:black;fill:none;stroke-width:2.0;stroke-dasharray:-;stroke-linecap:round;stroke-linejoin:round;" /><path d="M 0.0,-180.0 L -3.3065463576978533e-15,-162.0 L -6.613092715395707e-15,-144.0" style="stroke:black;fill:none;stroke-width:2.0;stroke-dasharray:-;stroke-linecap:round;stroke-linejoin:round;" /><path d="M 0.0,-144.0 L -8.266365894244634e-15,-99.0 L -1.6532731788489267e-14,-54.0" style="stroke:black;fill:none;stroke-width:2.0;stroke-dasharray:-;stroke-linecap:round;stroke-linejoin:round;" /><path d="M -1.6532731788489267e-14,-54.0 L -1.6532731788489267e-14,-39.6 L -9.000000000000016,-39.6 L 8.999999999999982,-39.6 M -6.300000000000017,-35.28 L 6.299999999999983,-35.28 M -1.8000000000000167,-30.96 L 1.7999999999999836,-30.96" style="stroke:black;fill:none;stroke-width:2.0;stroke-dasharray:-;stroke-linecap:round;stroke-linejoin:round;" /><path d="M 0.0,-0.0 L 54.0,-0.0 L 108.0,-0.0" style="stroke:black;fill:none;stroke-width:2.0;stroke-dasharray:-;stroke-linecap:round;stroke-linejoin:round;" /><path d="M 108.0,-0.0 L 108.0,14.999999999999998 L 123.0,14.999999999999998 L 123.0,45.0 L 108.0,45.0 L 108.0,59.99999999999999" style="stroke:black;fill:none;stroke-width:2.0;stroke-dasharray:-;stroke-linecap:round;stroke-linejoin:round;" /><path d="M 123.0,45.0 L 117.0,45.0" style="stroke:black;fill:none;stroke-width:2.0;stroke-dasharray:-;stroke-linecap:round;stroke-linejoin:round;" /><path d="M 110.0 45.0 L 117.0 40.5 L 117.0 49.5 Z" style="stroke:black;fill:black;stroke-linecap:butt;stroke-linejoin:miter;" /><path d="M 126.0,17.999999999999996 L 126.0,42.0" style="stroke:black;fill:none;stroke-width:2.0;stroke-dasharray:-;stroke-linecap:round;stroke-linejoin:round;" /><path d="M 126.0,42.0 L 141.0,42.0" style="stroke:black;fill:none;stroke-width:2.0;stroke-dasharray:-;stroke-linecap:round;stroke-linejoin:round;" /><path d="M 141.0,42.0 L 87.0,41.99999999999999 L 32.99999999999999,41.999999999999986" style="stroke:black;fill:none;stroke-width:2.0;stroke-dasharray:-;stroke-linecap:round;stroke-linejoin:round;" /><path d="M 108.0,59.99999999999999 L 108.0,78.0 L 108.0,96.0" style="stroke:black;fill:none;stroke-width:2.0;stroke-dasharray:-;stroke-linecap:round;stroke-linejoin:round;" /><path d="M 108.0,96.0 L 108.0,110.39999999999999 L 99.0,110.39999999999999 L 117.0,110.39999999999999 M 101.7,114.72 L 114.3,114.72 M 106.2,119.03999999999999 L 109.8,119.03999999999999" style="stroke:black;fill:none;stroke-width:2.0;stroke-dasharray:-;stroke-linecap:round;stroke-linejoin:round;" /><path d="M 288.0,-108.0 L 288.0,-45.0 L 287.99999999999994,18.0" style="stroke:black;fill:none;stroke-width:2.0;stroke-dasharray:-;stroke-linecap:round;stroke-linejoin:round;" /><path d="M 287.99999999999994,18.0 L 287.99999999999994,32.4 L 278.99999999999994,32.4 L 297.0,32.4 M 281.7,36.72 L 294.29999999999995,36.72 M 286.2,41.040000000000006 L 289.79999999999995,41.040000000000006" style="stroke:black;fill:none;stroke-width:2.0;stroke-dasharray:-;stroke-linecap:round;stroke-linejoin:round;" /><text x="3.6" y="-267.6" dominant-baseline="central" fill="darkred" font-size="12" font-family="sans" text-anchor="middle"><tspan x="3.6" dy="12">── CI-V Interface ──</tspan></text><text x="-68.39999999999999" y="-207.6" dominant-baseline="central" fill="darkred" font-size="12" font-family="sans" text-anchor="middle"><tspan x="-68.39999999999999" dy="12">IC-7000</tspan><tspan x="-68.39999999999999" dy="12">REMOTE jack</tspan><tspan x="-68.39999999999999" dy="12">(3.5mm TIP)</tspan></text><text x="72.0" y="-315.59999999999997" dominant-baseline="ideographic" fill="black" font-size="12" font-family="sans" text-anchor="middle"><tspan x="72.0" dy="12">R1</tspan><tspan x="72.0" dy="12">10kΩ</tspan></text><text x="68.39999999999999" y="-303.59999999999997" dominant-baseline="central" fill="red" font-size="12" font-family="sans" text-anchor="middle"><tspan x="68.39999999999999" dy="12">+3.3V</tspan></text><text x="126.0" y="-204.6" dominant-baseline="ideographic" fill="black" font-size="12" font-family="sans" text-anchor="middle"><tspan x="126.0" dy="12">R2  4.7kΩ</tspan></text><text x="255.6" y="-201.6" dominant-baseline="central" fill="blue" font-size="12" font-family="sans" text-anchor="middle"><tspan x="255.6" dy="12">ESP32-S3</tspan><tspan x="255.6" dy="12">GPIO4 (RX)</tspan></text><text x="125.99999999999999" y="-132.60000000000002" dominant-baseline="ideographic" fill="black" font-size="12" font-family="sans" text-anchor="middle"><tspan x="125.99999999999999" dy="12">D1  1N4148</tspan></text><text x="255.6" y="-129.60000000000002" dominant-baseline="central" fill="blue" font-size="12" font-family="sans" text-anchor="middle"><tspan x="255.6" dy="12">ESP32-S3</tspan><tspan x="255.6" dy="12">GPIO5 (TX)</tspan></text><text x="-68.39999999999999" y="-163.20000000000002" dominant-baseline="central" fill="darkred" font-size="12" font-family="sans" text-anchor="middle"><tspan x="-68.39999999999999" dy="12">SLEEVE</tspan></text><text x="3.5999999999999996" y="-62.4" dominant-baseline="central" fill="darkred" font-size="12" font-family="sans" text-anchor="middle"><tspan x="3.5999999999999996" dy="12">── Power Control ──</tspan></text><text x="-68.39999999999999" y="-20.4" dominant-baseline="central" fill="darkred" font-size="12" font-family="sans" text-anchor="middle"><tspan x="-68.39999999999999" dy="12">IC-7000</tspan><tspan x="-68.39999999999999" dy="12">PWRK pin</tspan><tspan x="-68.39999999999999" dy="12">(10-pin hdr)</tspan></text><text x="144.6" y="12.0" dominant-baseline="central" fill="black" font-size="12" font-family="sans" text-anchor="start"><tspan x="144.6" dy="12">Q1</tspan><tspan x="144.6" dy="12">2N7000</tspan></text><text x="29.399999999999995" y="27.599999999999987" dominant-baseline="central" fill="blue" font-size="12" font-family="sans" text-anchor="middle"><tspan x="29.399999999999995" dy="12">ESP32-S3</tspan><tspan x="29.399999999999995" dy="12">GPIO6</tspan></text><text x="309.59999999999997" y="-86.39999999999999" dominant-baseline="central" fill="blue" font-size="12" font-family="sans" text-anchor="middle"><tspan x="309.59999999999997" dy="12">ESP32</tspan><tspan x="309.59999999999997" dy="12">GND</tspan></text><text x="147.6" y="81.60000000000001" dominant-baseline="central" fill="gray" font-size="12" font-family="sans" text-anchor="middle"><tspan x="147.6" dy="12">All grounds connected (IC-7000 chassis + ESP32 GND)</tspan></text><circle cx="0.0" cy="-180.0" r="2.6999999999999997" style="stroke:black;fill:black;stroke-width:2.0;stroke-dasharray:-;" /><circle cx="72.0" cy="-180.0" r="2.6999999999999997" style="stroke:black;fill:black;stroke-width:2.0;stroke-dasharray:-;" /><circle cx="0.0" cy="-0.0" r="2.6999999999999997" style="stroke:black;fill:black;stroke-width:2.0;stroke-dasharray:-;" /></svg>