<svg xmlns="http://www.w3.org/2000/svg" xmlns:xlink="http://www.w3.org/1999/xlink" xml:lang="en" height="167.44pt" width="360.66200000000003pt" viewBox="-162.15400000000002 -115.79999999999998 360.66200000000003 167.44"><path d="M 0.0,-72.0 L 54.0,-72.0 L 108.0,-72.0" style="stroke:black;fill:none;stroke-width:2.0;stroke-dasharray:-;stroke-linecap:round;stroke-linejoin:round;" /><path d="M 108.0,-72.0 L 108.0,-57.00000000000001 L 123.0,-57.00000000000001 L 123.0,-27.0 L 108.0,-27.0 L 108.0,-12.000000000000005" style="stroke:black;fill:none;stroke-width:2.0;stroke-dasharray:-;stroke-linecap:round;stroke-linejoin:round;" /><path d="M 123.0,-27.0 L 117.0,-27.0" style="stroke:black;fill:none;stroke-width:2.0;stroke-dasharray:-;stroke-linecap:round;stroke-linejoin:round;" /><path d="M 110.0 -27.0 L 117.0 -31.5 L 117.0 -22.5 Z" style="stroke:black;fill:black;stroke-linecap:butt;stroke-linejoin:miter;" /><path d="M 126.0,-54.0 L 126.0,-29.999999999999996" style="stroke:black;fill:none;stroke-width:2.0;stroke-dasharray:-;stroke-linecap:round;stroke-linejoin:round;" /><path d="M 126.0,-29.999999999999996 L 141.0,-29.999999999999996" style="stroke:black;fill:none;stroke-width:2.0;stroke-dasharray:-;stroke-linecap:round;stroke-linejoin:round;" /><path d="M 141.0,-29.999999999999996 L 105.0,-30.0 L 69.0,-30.000000000000007" style="stroke:black;fill:none;stroke-width:2.0;stroke-dasharray:-;stroke-linecap:round;stroke-linejoin:round;" /><path d="M 108.0,-12.000000000000005 L 108.0,5.999999999999995 L 108.0,23.999999999999993" style="stroke:black;fill:none;stroke-width:2.0;stroke-dasharray:-;stroke-linecap:round;stroke-linejoin:round;" /><path d="M 108.0,23.999999999999993 L 108.0,38.39999999999999 L 99.0,38.39999999999999 L 117.0,38.39999999999999 M 101.7,42.72 L 114.3,42.72 M 106.2,47.04 L 109.8,47.04" style="stroke:black;fill:none;stroke-width:2.0;stroke-dasharray:-;stroke-linecap:round;stroke-linejoin:round;" /><text x="-50.4" y="-96.60000000000001" dominant-baseline="central" fill="darkred" font-size="14" font-family="sans" text-anchor="middle"><tspan x="-50.4" dy="14">IC-7000</tspan><tspan x="-50.4" dy="14">PWRK pin</tspan></text><text x="144.6" y="-56.0" dominant-baseline="central" fill="black" font-size="14" font-family="sans" text-anchor="start"><tspan x="144.6" dy="14">2N7000</tspan></text><text x="65.39999999999999" y="-40.400000000000006" dominant-baseline="central" fill="blue" font-size="14" font-family="sans" text-anchor="middle"><tspan x="65.39999999999999" dy="14">GPIO6</tspan></text><text x="3.5999999999999996" y="7.599999999999998" dominant-baseline="central" fill="gray" font-size="14" font-family="sans" text-anchor="middle"><tspan x="3.5999999999999996" dy="14">Pulse GPIO6 HIGH for 200ms to toggle radio power</tspan></text><text x="-50.4" y="-118.19999999999999" dominant-baseline="central" fill="gray" font-size="14" font-family="sans" text-anchor="middle"><tspan x="-50.4" dy="14">(3.3V pullup</tspan><tspan x="-50.4" dy="14">on radio logic board)</tspan></text><circle cx="0.0" cy="-72.0" r="2.6999999999999997" style="stroke:black;fill:black;stroke-width:2.0;stroke-dasharray:-;" /></svg>